HIERARCHY
ROOT hip
{
  OFFSET 0 0 0
  CHANNELS 6 Xposition Yposition Zposition Zrotation Yrotation Xrotation
  JOINT abdomen
  {
    OFFSET 0 20.6881 -0.73152
    CHANNELS 3 Zrotation Xrotation Yrotation
    JOINT chest
    {
      OFFSET 0 11.7043 -0.48768
      CHANNELS 3 Zrotation Xrotation Yrotation
      JOINT neck
      {
        OFFSET 0 22.1894 -2.19456
        CHANNELS 3 Zrotation Xrotation Yrotation
        JOINT head
        {
          OFFSET -0.24384 7.07133 1.2192
          CHANNELS 3 Zrotation Xrotation Yrotation
          JOINT leftEye
          {
            OFFSET 4.14528 8.04674 8.04672
            CHANNELS 3 Zrotation Xrotation Yrotation
            End Site
            {
              OFFSET 1 0 0
            }
          }
          JOINT rightEye
          {
            OFFSET -3.6576 8.04674 8.04672
            CHANNELS 3 Zrotation Xrotation Yrotation
            End Site
            {
              OFFSET 1 0 0
            }
          }
        }
      }
      JOINT rCollar
      {
        OFFSET -2.68224 19.2634 -4.8768
        CHANNELS 3 Zrotation Xrotation Yrotation
        JOINT rShldr
        {
          OFFSET -8.77824 -1.95073 1.46304
          CHANNELS 3 Zrotation Xrotation Yrotation
          JOINT rForeArm
          {
            OFFSET -28.1742 -1.7115 0.48768
            CHANNELS 3 Zrotation Xrotation Yrotation
            JOINT rHand
            {
              OFFSET -22.5879 0.773209 7.07136
              CHANNELS 3 Zrotation Xrotation Yrotation
              JOINT rThumb1
              {
                OFFSET -1.2192 -0.487915 3.41376
                CHANNELS 3 Zrotation Xrotation Yrotation
                JOINT rThumb2
                {
                  OFFSET -3.37035 -0.52449 3.41376
                  CHANNELS 3 Zrotation Xrotation Yrotation
                  End Site
                  {
                    OFFSET -1.78271 -1.18214 1.43049
                  }
                }
              }
              JOINT rIndex1
              {
                OFFSET -7.75947 0.938293 5.60832
                CHANNELS 3 Zrotation Xrotation Yrotation
                JOINT rIndex2
                {
                  OFFSET -2.54057 -0.884171 1.56538
                  CHANNELS 3 Zrotation Xrotation Yrotation
                  End Site
                  {
                    OFFSET -1.62519 -0.234802 1.16502
                  }
                }
              }
              JOINT rMid1
              {
                OFFSET -8.24714 1.18213 3.41376
                CHANNELS 3 Zrotation Xrotation Yrotation
                JOINT rMid2
                {
                  OFFSET -3.10165 -0.590103 1.0647
                  CHANNELS 3 Zrotation Xrotation Yrotation
                  End Site
                  {
                    OFFSET -2.48547 -0.328903 0.83742
                  }
                }
              }
              JOINT rRing1
              {
                OFFSET -8.82822 0.546677 1.51678
                CHANNELS 3 Zrotation Xrotation Yrotation
                JOINT rRing2
                {
                  OFFSET -2.60934 -0.819778 -0.0198488
                  CHANNELS 3 Zrotation Xrotation Yrotation
                  End Site
                  {
                    OFFSET -2.33842 -0.294052 0.168128
                  }
                }
              }
              JOINT rPinky1
              {
                OFFSET -8.27202 -0.0477905 -0.4584
                CHANNELS 3 Zrotation Xrotation Yrotation
                JOINT rPinky2
                {
                  OFFSET -1.82734 -0.647385 -0.700984
                  CHANNELS 3 Zrotation Xrotation Yrotation
                  End Site
                  {
                    OFFSET -1.69225 -0.51767 -0.607171
                  }
                }
              }
            }
          }
        }
      }
      JOINT lCollar
      {
        OFFSET 2.68224 19.2634 -4.8768
        CHANNELS 3 Zrotation Xrotation Yrotation
        JOINT lShldr
        {
          OFFSET 8.77824 -1.95073 1.46304
          CHANNELS 3 Zrotation Xrotation Yrotation
          JOINT lForeArm
          {
            OFFSET 28.1742 -1.7115 0.48768
            CHANNELS 3 Zrotation Xrotation Yrotation
            JOINT lHand
            {
              OFFSET 22.5879 0.773209 7.07136
              CHANNELS 3 Zrotation Xrotation Yrotation
              JOINT lThumb1
              {
                OFFSET 1.2192 -0.487915 3.41376
                CHANNELS 3 Zrotation Xrotation Yrotation
                JOINT lThumb2
                {
                  OFFSET 3.37035 -0.52449 3.41376
                  CHANNELS 3 Zrotation Xrotation Yrotation
                  End Site
                  {
                    OFFSET 1.78271 -1.18214 1.43049
                  }
                }
              }
              JOINT lIndex1
              {
                OFFSET 7.75947 0.938293 5.60832
                CHANNELS 3 Zrotation Xrotation Yrotation
                JOINT lIndex2
                {
                  OFFSET 2.54057 -0.884171 1.56538
                  CHANNELS 3 Zrotation Xrotation Yrotation
                  End Site
                  {
                    OFFSET 1.62519 -0.234802 1.16502
                  }
                }
              }
              JOINT lMid1
              {
                OFFSET 8.24714 1.18213 3.41376
                CHANNELS 3 Zrotation Xrotation Yrotation
                JOINT lMid2
                {
                  OFFSET 3.10165 -0.590103 1.0647
                  CHANNELS 3 Zrotation Xrotation Yrotation
                  End Site
                  {
                    OFFSET 2.48547 -0.328903 0.83742
                  }
                }
              }
              JOINT lRing1
              {
                OFFSET 8.82822 0.546677 1.51678
                CHANNELS 3 Zrotation Xrotation Yrotation
                JOINT lRing2
                {
                  OFFSET 2.60934 -0.819778 -0.0198488
                  CHANNELS 3 Zrotation Xrotation Yrotation
                  End Site
                  {
                    OFFSET 2.33842 -0.294052 0.168128
                  }
                }
              }
              JOINT lPinky1
              {
                OFFSET 8.27202 -0.0477905 -0.4584
                CHANNELS 3 Zrotation Xrotation Yrotation
                JOINT lPinky2
                {
                  OFFSET 1.82734 -0.647385 -0.700984
                  CHANNELS 3 Zrotation Xrotation Yrotation
                  End Site
                  {
                    OFFSET 1.69225 -0.51767 -0.607171
                  }
                }
              }
            }
          }
        }
      }
    }
  }
  JOINT rButtock
  {
    OFFSET -8.77824 4.35084 1.2192
    CHANNELS 3 Zrotation Xrotation Yrotation
    JOINT rThigh
    {
      OFFSET 0 -1.70687 -2.19456
      CHANNELS 3 Zrotation Xrotation Yrotation
      JOINT rShin
      {
        OFFSET 0 -36.8199 0.73152
        CHANNELS 3 Zrotation Xrotation Yrotation
        JOINT rFoot
        {
          OFFSET 0.73152 -45.1104 -5.12064
          CHANNELS 3 Zrotation Xrotation Yrotation
          End Site
          {
            OFFSET -1.1221 -3.69964 12.103
          }
        }
      }
    }
  }
  JOINT lButtock
  {
    OFFSET 8.77824 4.35084 1.2192
    CHANNELS 3 Zrotation Xrotation Yrotation
    JOINT lThigh
    {
      OFFSET 0 -1.70687 -2.19456
      CHANNELS 3 Zrotation Xrotation Yrotation
      JOINT lShin
      {
        OFFSET 0 -36.8199 0.73152
        CHANNELS 3 Zrotation Xrotation Yrotation
        JOINT lFoot
        {
          OFFSET -0.73152 -45.1104 -5.12064
          CHANNELS 3 Zrotation Xrotation Yrotation
          End Site
          {
            OFFSET 1.1221 -3.69964 12.103
          }
        }
      }
    }
  }
}
MOTION
Frames:	4
Frame Time:	0.03333
0.8895495906472206 -7.328354567289352 -1.851381454616785 -8.377408027648926 38.863677978515625 3.7979366779327393 -2.554459571838379 3.3525798320770264 8.534043312072754 2.340078592300415 -7.202897548675537 1.9663516283035278 -9.599241256713867 19.683290481567383 -13.069731712341309 14.547894477844238 -25.95810890197754 -23.54744529724121 0.2809562683105469 0.07353738695383072 0.2791343629360199 0.01392963994294405 0.30661994218826294 -0.16006046533584595 0.2750140428543091 0.20108118653297424 0.16610930860042572 45.54608917236328 10.51012897491455 37.36318588256836 -28.30149269104004 -33.88637924194336 73.53184509277344 -4.419970989227295 51.891876220703125 9.78618049621582 0.07326769083738327 -0.3389721214771271 -0.6912391185760498 0.00031374316313304007 -0.1254909187555313 0.1745617836713791 -0.059753358364105225 -0.4917123317718506 0.39545267820358276 7.662609577178955 5.223300457000732 0.47455906867980957 0.23213829100131989 -0.09419392794370651 -0.08136986196041107 3.069334030151367 0.9886254072189331 -0.2049088180065155 0.01118387095630169 -0.30204614996910095 0.11135771870613098 10.077632904052734 0.29082679748535156 -0.5364498496055603 0.1488260179758072 0.725263774394989 -0.08518324792385101 2.1279141902923584 0.23476727306842804 -0.240483820438385 -0.6296111345291138 -0.22058071196079254 -0.12683527171611786 15.692432403564453 33.78020477294922 -115.6778564453125 26.675716400146484 -25.632312774658203 -60.22978591918945 0.18030625581741333 17.982236862182617 -2.6770834922790527 -0.09584613889455795 -0.09650971740484238 0.02295730821788311 -0.284045547246933 -0.2822423577308655 0.13459712266921997 -0.02666962519288063 -0.244407519698143 0.04444536566734314 -7.355027198791504 5.424453258514404 -0.8745708465576172 0.11085252463817596 -0.41263943910598755 -0.33080530166625977 -2.978316068649292 0.8746641874313354 0.4805172383785248 -0.054206013679504395 -0.008339178748428822 0.05389980971813202 -10.275076866149902 0.9504522681236267 0.6631472110748291 -0.4999083876609802 -0.41061076521873474 0.1655985713005066 -2.3927648067474365 -0.44798654317855835 0.2667488753795624 -0.34985485672950745 -0.09968475997447968 -0.06338802725076675 8.568122863769531 -6.5628981590271 -6.026668548583984 -0.1338672786951065 46.39115524291992 1.297330379486084 -22.108430862426758 -22.16056251525879 -37.323360443115234 0.023542795330286026 0.036083560436964035 -0.3895987570285797 -12.537567138671875 -58.21113204956055 -17.465024948120117 1.896414041519165 64.31993103027344 -1.805869698524475 -1.3918447494506836 -12.708213806152344 -6.276287078857422
0.8873621001839638 -7.262374460697174 -1.8563831225037575 -8.97911548614502 37.79343032836914 4.059195041656494 -2.2427563667297363 4.01483678817749 8.547308921813965 2.0981943607330322 -7.6534833908081055 2.1324689388275146 -9.393770217895508 18.985027313232422 -12.883708953857422 14.124244689941406 -25.278133392333984 -23.02646255493164 0.14042213559150696 -0.15036481618881226 0.15253371000289917 -0.2963879704475403 0.17148590087890625 0.06552429497241974 0.5879995226860046 0.18695257604122162 0.5043964982032776 45.779296875 11.949967384338379 36.378971099853516 -28.43553924560547 -34.13685607910156 73.36741638183594 -4.213241100311279 50.18625259399414 9.145291328430176 -0.07587075233459473 -0.3651256859302521 -0.8998230695724487 -0.027400700375437737 -0.09415242820978165 0.2209174484014511 0.005928625352680683 -0.5751409530639648 0.45530086755752563 7.646788120269775 5.176301956176758 0.41428524255752563 0.44425642490386963 -0.02798132225871086 0.01172320544719696 3.0894837379455566 0.979081928730011 0.018903832882642746 -0.13107465207576752 -0.2945970892906189 0.174740269780159 9.707371711730957 0.500921905040741 -0.7538891434669495 -0.057202424854040146 0.7438568472862244 0.08066228032112122 1.974953532218933 0.40251755714416504 -0.4127434194087982 -0.48780354857444763 -0.17483140528202057 0.003603433957323432 15.303304672241211 35.34067153930664 -114.35565185546875 26.46282196044922 -25.06462287902832 -59.650634765625 -0.10046346485614777 17.083240509033203 -2.198301076889038 0.207542285323143 0.07035230845212936 0.03274473547935486 -0.15415272116661072 -0.013972552493214607 0.2105495184659958 0.23846806585788727 0.01739400066435337 -0.03701414540410042 -7.481201171875 5.255248069763184 -0.8431016206741333 0.20635943114757538 -0.49139195680618286 -0.5977001786231995 -3.1410653591156006 0.8500910401344299 0.6762094497680664 -0.2634892463684082 0.30323511362075806 -0.2036827951669693 -10.11484432220459 0.9293273091316223 0.5518785119056702 -0.5155369639396667 -0.6755139231681824 0.1489180326461792 -2.4780807495117188 -0.6366817951202393 0.5692200064659119 -0.4521089196205139 0.1058911457657814 0.01261309813708067 7.808078765869141 -6.154687404632568 -5.222452640533447 -0.4819035530090332 46.798065185546875 1.891311526298523 -21.90311622619629 -21.591032028198242 -37.21498107910156 -0.24351650476455688 0.07484131306409836 -0.28256937861442566 -11.4127197265625 -58.94014358520508 -15.726555824279785 1.8470301628112793 64.19729614257812 -1.8614492416381836 -1.2309335470199585 -12.824933052062988 -5.563471794128418
0.8974673226475716 -7.3177821934223175 -1.8799605779349804 -9.354828834533691 41.27851104736328 5.590559482574463 -2.7260899543762207 3.8738443851470947 7.400900363922119 3.0072882175445557 -7.757846355438232 2.2242250442504883 -9.687298774719238 18.72275733947754 -13.552391052246094 14.078351020812988 -25.49325180053711 -23.83270835876465 0.012854181230068207 -0.37496891617774963 -0.011502429842948914 -0.11193301528692245 0.034210219979286194 0.09016148746013641 0.3826887905597687 0.0949363261461258 0.3416433036327362 47.50344467163086 11.48183536529541 34.23478698730469 -28.220069885253906 -34.07020950317383 73.61540985107422 -4.897008895874023 52.387786865234375 10.142271995544434 0.007706769276410341 -0.31518784165382385 -0.4806741774082184 -0.03602910414338112 0.03795716166496277 0.4322023391723633 0.03745632246136665 -0.14653047919273376 -0.18134436011314392 7.7390642166137695 5.601250648498535 0.46062538027763367 0.31333214044570923 -0.2704307436943054 0.4150422215461731 2.8366501331329346 1.2218071222305298 0.18726840615272522 -0.09361245483160019 0.026642125099897385 0.0633154809474945 9.876121520996094 0.3363224267959595 -0.09240314364433289 -0.2210906744003296 0.8085707426071167 -0.3181442618370056 2.2672340869903564 0.6507225632667542 -0.4442695379257202 -0.1706497222185135 -0.18333853781223297 0.20390479266643524 16.95906639099121 33.515621185302734 -115.77645111083984 26.46137046813965 -24.03708267211914 -58.03306198120117 -0.16884185373783112 17.16851234436035 -2.335625171661377 0.019185829907655716 0.0787360891699791 0.027451561763882637 -0.48898234963417053 0.28969913721084595 0.2314033806324005 -0.03835417702794075 -0.2250833511352539 0.22066399455070496 -7.850541114807129 5.553445339202881 -0.5490943193435669 -0.22883234918117523 -0.2733539640903473 -0.3519204556941986 -2.954274892807007 0.6829348206520081 0.6209508776664734 -0.17108812928199768 0.2879193127155304 -0.12111256271600723 -10.070459365844727 0.8823400735855103 0.4319920241832733 -0.3515837490558624 -0.6649230718612671 0.2552136182785034 -2.3152682781219482 -0.7512532472610474 0.23022791743278503 -0.7350375056266785 -0.0640677809715271 -0.11028674244880676 8.949515342712402 -8.233232498168945 -4.717646598815918 -0.6513724327087402 46.143287658691406 1.7441192865371704 -20.968591690063477 -21.1326904296875 -36.26133346557617 -0.03705243766307831 -0.01271581370383501 -0.09673431515693665 -11.90558910369873 -57.67177200317383 -17.170866012573242 1.2342654466629028 63.48681640625 -1.6103640794754028 -1.80531644821167 -12.250166893005371 -5.311340808868408
0.9186370298266411 -7.309744507074356 -1.9153914414346218 -9.204401969909668 40.9671745300293 4.571238994598389 -2.7712998390197754 3.9843757152557373 7.1777496337890625 3.169671058654785 -7.754970550537109 2.1022846698760986 -9.76630973815918 18.82605743408203 -13.14148998260498 14.80820083618164 -25.328516006469727 -23.568702697753906 -0.2087370753288269 -0.39505642652511597 -0.004170862026512623 -0.0963497906923294 -0.10591556876897812 -0.09169184416532516 0.03283877298235893 0.17144323885440826 0.4388810694217682 49.070068359375 11.435284614562988 32.49443054199219 -28.08718490600586 -33.61406707763672 73.32727813720703 -5.178581714630127 53.23471450805664 10.517610549926758 -0.14130456745624542 -0.3692361116409302 -0.2054559290409088 0.12904395163059235 0.07606302201747894 0.643403172492981 0.21493302285671234 0.13248206675052643 -0.45325031876564026 7.567430019378662 5.562108516693115 0.6085267066955566 -0.08871865272521973 -0.749058723449707 0.25166454911231995 2.637714385986328 1.1596183776855469 0.33430129289627075 -0.01592351496219635 0.04288041219115257 -0.04058068245649338 9.892651557922363 0.35893580317497253 0.2653937041759491 -0.14098387956619263 0.706419825553894 -0.4611532688140869 2.5160329341888428 0.045167285948991776 -0.3043273091316223 -0.08055489510297775 -0.2803210914134979 0.1912761628627777 16.954057693481445 31.8878116607666 -116.2469482421875 26.86798667907715 -24.637014389038086 -58.65498352050781 -0.08719003200531006 17.551166534423828 -2.435373067855835 0.0793510228395462 -0.09413500130176544 -0.008753000758588314 -0.41697558760643005 0.048219237476587296 -0.058719173073768616 -0.1676681637763977 -0.11666151881217957 0.09016464650630951 -7.76324462890625 5.559360504150391 -0.5604637861251831 -0.41203099489212036 -0.004196119029074907 -0.05678442865610123 -2.8130569458007812 0.8130776882171631 0.28172123432159424 -0.18829616904258728 0.314100980758667 -0.0652717798948288 -10.000667572021484 0.881673276424408 0.492704838514328 -0.18019604682922363 -0.3784177005290985 0.23663896322250366 -2.2420027256011963 -0.8274772763252258 0.3477122187614441 -0.6398288607597351 0.06609208136796951 0.035211581736803055 8.697422981262207 -10.281926155090332 -5.0536088943481445 -1.04802668094635 46.74900817871094 2.0319557189941406 -20.36819076538086 -22.100759506225586 -35.08597946166992 -0.04949696734547615 0.17624634504318237 -0.21008987724781036 -10.342288970947266 -58.049339294433594 -16.833955764770508 1.2213504314422607 63.994319915771484 -1.3809802532196045 -2.025618314743042 -10.987481117248535 -5.71462345123291
